<svg width="45" height="45" viewBox="0 0 45 45" fill="none" xmlns="http://www.w3.org/2000/svg">
<path d="M45 1.76549C45 0.679333 44.1182 -0.201172 43.0304 -0.201172H1.9696C0.881822 -0.201172 0 0.679334 0 1.76549V43.234C1.44374e-05 44.3201 0.881831 45.2006 1.9696 45.2006H7.36445C8.27964 45.2006 9.07417 44.5711 9.28233 43.6812L10.2039 37.9783L10.2176 37.9241C10.3692 37.3683 10.8219 36.9427 11.3903 36.8272L15.5992 35.9726L15.6716 35.9564C16.4161 35.7758 16.9976 35.1745 17.0815 34.3935L17.1074 34.1387C17.23 32.8557 16.9074 30.845 16.5539 28.715L16.5158 28.4941C16.2299 26.9021 15.5992 25.2778 15.1051 23.7429C14.6273 22.2589 12.984 17.1155 13.0113 15.4965C13.0135 15.3613 13.0258 15.2287 13.0258 15.0935C13.0258 14.9419 13.0377 14.79 13.0643 14.6408C13.6782 11.2066 15.3433 8.82288 18.8231 8.07921L20.0893 7.83454C22.0982 7.43276 23.8115 8.06617 24.8633 8.35214C25.9152 8.63811 27.0024 9.20776 27.8757 10.5316L27.95 10.647C29.4337 13.0012 28.9901 20.3904 28.5666 22.5186L28.5245 22.7254C28.1893 24.3314 27.8002 26.1939 26.9937 27.8147C26.2894 29.23 25.5787 30.0482 25.1636 30.7349L25.0048 30.9954C24.8487 31.2491 24.7635 31.5401 24.7635 31.8403C24.7636 32.7077 25.066 34.2144 25.9347 34.2144H30.5388C31.0502 34.2144 31.528 34.4692 31.8123 34.8937L37.0763 44.3272C37.4453 44.8426 38.0766 45.2006 38.7136 45.2006H43.0304C44.1182 45.2006 45 44.3201 45 43.234V1.76549Z" fill="#F98F41"/>
<path d="M21.0739 19.8185C20.3948 19.4512 19.8222 19.3061 19.3407 19.3241C18.8546 19.3422 18.4774 19.526 18.1954 19.7848C17.917 20.0403 17.7365 20.3636 17.6256 20.6601C17.5153 20.9554 17.4681 21.2398 17.4681 21.4311C17.4682 21.5444 17.5031 21.7126 17.5549 21.8993C17.6088 22.0937 17.6875 22.3305 17.7874 22.5905C17.9872 23.1102 18.2759 23.7327 18.6327 24.3081C18.9876 24.8805 19.42 25.4229 19.9124 25.765C20.4118 26.1118 20.9922 26.263 21.6029 26.0023L21.7089 25.9543C22.7878 25.4364 23.3025 24.2788 23.2308 23.0907C23.1564 21.8598 22.456 20.566 21.0739 19.8185Z" fill="#F98F41"/>
<path d="M26.6904 18.482C26.5296 18.4606 26.3748 18.4897 26.2328 18.5492C25.9552 18.6657 25.7113 18.9049 25.515 19.1668C25.3406 19.3994 25.1915 19.6662 25.0796 19.9224L25.0339 20.0315C24.8091 20.5928 24.4755 21.708 24.3498 22.7429C24.2871 23.2589 24.2737 23.7724 24.3611 24.1925C24.4479 24.6094 24.6475 24.9884 25.0542 25.1331L25.0918 25.1457C25.481 25.266 25.8989 25.1176 26.2643 24.8551C26.6473 24.5798 27.0152 24.1515 27.3136 23.6413C27.9085 22.624 28.2603 21.2228 27.853 19.9444C27.6571 19.3296 27.422 18.9191 27.1465 18.6907C27.0053 18.5737 26.8519 18.5035 26.6904 18.482Z" fill="#F98F41"/>
</svg>
